<?xml version="1.0" encoding="UTF-8"?><svg xmlns="http://www.w3.org/2000/svg" xmlns:xlink="http://www.w3.org/1999/xlink" viewBox="0 0 594.39 237.32"><defs><style>.j{fill:#75cbed;}.k{clip-path:url(#h);}.l{fill:url(#c);}.m{opacity:.8;}.m,.n,.o{fill:#010101;isolation:isolate;}.p{fill:#6f7071;}.q,.r{fill:#689f63;}.s{fill:#beafc2;}.t{fill:#343434;}.t,.r{fill-rule:evenodd;}.u{fill:url(#g);}.v{fill:#0a0b0b;}.w{fill:url(#i);}.x{clip-path:url(#d);}.y{fill:url(#e);}.a`{fill:none;}.aa{fill:#f0d50e;}.n{opacity:.6;}.ab{fill:#feea10;}.o{opacity:.45;}.ac{clip-path:url(#f);}.ad{fill:#feed55;}</style><linearGradient id="c" x1="297.2" y1="237.32" x2="297.2" y2="0" gradientTransform="matrix(1, 0, 0, 1, 0, 0)" gradientUnits="userSpaceOnUse"><stop offset="0" stop-color="#beafc2"/><stop offset="1" stop-color="#281b2c"/></linearGradient><clipPath id="d"><path class="a`" d="M233.14,139.95l-15.55,8.98c-.58,.34-.94,.96-.94,1.63v17.96c0,.67,.36,1.29,.94,1.63l15.55,8.98c.58,.33,1.3,.33,1.88,0l15.55-8.98c.58-.34,.94-.96,.94-1.63v-17.96c0-.67-.36-1.29-.94-1.63l-15.55-8.98c-.29-.17-.62-.25-.94-.25s-.65,.08-.94,.25"/></clipPath><linearGradient id="e" x1=".15" y1="840.42" x2=".59" y2="840.42" gradientTransform="translate(-86760.62 -42532.73) rotate(116.11) scale(115.31 -115.31)" gradientUnits="userSpaceOnUse"><stop offset=".3" stop-color="#40873e"/><stop offset=".5" stop-color="#55934f"/><stop offset=".8" stop-color="#5cae45"/></linearGradient><clipPath id="f"><path class="a`" d="M217.04,169.66c.15,.19,.33,.36,.55,.49l13.34,7.7,2.22,1.28c.33,.19,.71,.27,1.08,.25,.12,0,.25-.03,.37-.07l16.4-30.03c-.13-.14-.27-.25-.44-.35l-10.18-5.88-5.38-3.1c-.15-.09-.32-.15-.49-.2l-17.48,29.9Z"/></clipPath><linearGradient id="g" x1="-.1" y1="840.18" x2=".19" y2="840.18" gradientTransform="translate(88633.55 119812.35) rotate(-36.46) scale(177.06 -177.06)" gradientUnits="userSpaceOnUse"><stop offset=".57" stop-color="#40873e"/><stop offset=".72" stop-color="#619858"/><stop offset="1" stop-color="#77ac64"/></linearGradient><clipPath id="h"><path class="a`" d="M233.89,139.71c-.26,.03-.52,.11-.75,.24l-15.51,8.95,16.72,30.45c.23-.03,.46-.11,.67-.23l15.55-8.98c.48-.28,.81-.75,.91-1.28l-17.05-29.12c-.13-.02-.25-.04-.38-.04-.05,0-.1,0-.16,0"/></clipPath><linearGradient id="i" x1=".43" y1="840.21" x2=".69" y2="840.21" gradientTransform="translate(161.96 109293.58) scale(129.89 -129.89)" gradientUnits="userSpaceOnUse"><stop offset=".16" stop-color="#71b74a"/><stop offset=".38" stop-color="#7ab561"/><stop offset=".47" stop-color="#77ad64"/><stop offset=".7" stop-color="#659e5a"/><stop offset=".9" stop-color="#40873e"/></linearGradient></defs><g id="a"/><g id="b"><g><rect class="l" width="594.39" height="237.32"/><g><path class="s" d="M220.08,91.85c-3.73,0-7.3-.61-10.71-1.83-3.42-1.22-6.05-2.78-7.92-4.69l2.08-4.08c1.77,1.72,4.14,3.16,7.13,4.33,2.98,1.17,6.12,1.76,9.42,1.76s5.72-.39,7.7-1.18c1.98-.79,3.44-1.85,4.37-3.19,.93-1.34,1.4-2.82,1.4-4.44,0-1.96-.56-3.53-1.68-4.73-1.12-1.19-2.59-2.14-4.41-2.83-1.82-.69-3.82-1.3-6.02-1.83-2.2-.53-4.39-1.09-6.59-1.68-2.2-.6-4.22-1.4-6.05-2.4-1.84-1-3.32-2.33-4.44-3.98-1.12-1.65-1.68-3.81-1.68-6.48,0-2.48,.66-4.76,1.97-6.84,1.31-2.08,3.33-3.75,6.05-5.01,2.72-1.27,6.21-1.9,10.46-1.9,2.82,0,5.61,.39,8.38,1.18,2.77,.79,5.16,1.88,7.16,3.26l-1.79,4.23c-2.15-1.43-4.43-2.48-6.84-3.15-2.41-.67-4.74-1-6.98-1-3.01,0-5.49,.41-7.45,1.22-1.96,.81-3.4,1.9-4.33,3.26s-1.4,2.9-1.4,4.62c0,1.96,.56,3.53,1.68,4.73,1.12,1.19,2.6,2.13,4.44,2.79,1.84,.67,3.86,1.27,6.05,1.79,2.2,.53,4.38,1.1,6.56,1.72,2.17,.62,4.18,1.42,6.02,2.4,1.84,.98,3.32,2.28,4.44,3.9,1.12,1.62,1.68,3.75,1.68,6.38,0,2.44-.67,4.69-2.01,6.77-1.34,2.08-3.38,3.75-6.13,5.01-2.75,1.27-6.27,1.9-10.57,1.9Z"/><path class="s" d="M243.36,58.04v-4.23h23.28v4.23h-23.28Zm17.77,33.74c-3.54,0-6.26-.96-8.17-2.87-1.91-1.91-2.87-4.61-2.87-8.1V45.5h5.09v35.03c0,2.2,.56,3.89,1.68,5.09,1.12,1.19,2.73,1.79,4.84,1.79,2.24,0,4.11-.65,5.59-1.93l1.79,3.65c-1,.91-2.21,1.58-3.62,2.01-1.41,.43-2.85,.65-4.33,.65Z"/><path class="s" d="M288.92,91.78c-2.82,0-5.27-.47-7.34-1.4-2.08-.93-3.67-2.22-4.76-3.87-1.1-1.65-1.65-3.55-1.65-5.7,0-1.96,.47-3.74,1.4-5.34,.93-1.6,2.46-2.89,4.58-3.87,2.12-.98,4.98-1.47,8.56-1.47h12.97v3.8h-12.82c-3.63,0-6.15,.64-7.56,1.93-1.41,1.29-2.11,2.89-2.11,4.8,0,2.15,.83,3.87,2.51,5.16,1.67,1.29,4.01,1.93,7.02,1.93s5.34-.66,7.42-1.97c2.08-1.31,3.59-3.21,4.55-5.7l1.15,3.51c-.96,2.48-2.61,4.47-4.98,5.95-2.36,1.48-5.34,2.22-8.92,2.22Zm12.97-.36v-8.31l-.21-1.36v-13.9c0-3.2-.9-5.66-2.69-7.38-1.79-1.72-4.45-2.58-7.99-2.58-2.44,0-4.75,.41-6.95,1.22-2.2,.81-4.06,1.89-5.59,3.22l-2.29-3.8c1.91-1.62,4.2-2.88,6.88-3.76,2.67-.88,5.49-1.33,8.45-1.33,4.87,0,8.63,1.21,11.28,3.62,2.65,2.41,3.98,6.08,3.98,11v23.35h-4.87Z"/><path class="s" d="M336.21,91.78c-3.73,0-7.06-.82-9.99-2.47-2.94-1.65-5.24-3.92-6.91-6.81-1.67-2.89-2.51-6.2-2.51-9.92s.83-7.09,2.51-9.96c1.67-2.87,3.98-5.11,6.91-6.73,2.94-1.62,6.27-2.44,9.99-2.44,3.2,0,6.09,.62,8.67,1.86,2.58,1.24,4.61,3.11,6.09,5.59l-3.8,2.58c-1.29-1.91-2.89-3.32-4.8-4.23-1.91-.91-3.99-1.36-6.23-1.36-2.68,0-5.09,.61-7.24,1.83-2.15,1.22-3.84,2.93-5.09,5.12-1.24,2.2-1.86,4.78-1.86,7.74s.62,5.54,1.86,7.74c1.24,2.2,2.94,3.9,5.09,5.12,2.15,1.22,4.56,1.83,7.24,1.83,2.24,0,4.32-.45,6.23-1.36,1.91-.91,3.51-2.29,4.8-4.15l3.8,2.58c-1.48,2.44-3.51,4.29-6.09,5.55-2.58,1.27-5.47,1.9-8.67,1.9Z"/><path class="s" d="M360.35,91.42V38.26h5.09v53.16h-5.09Zm4.01-9.74l.14-6.52,23.43-21.35h6.23l-16.55,15.83-2.87,2.44-10.39,9.6Zm25.15,9.74l-15.69-19.56,3.3-3.94,18.63,23.5h-6.23Z"/></g><g><path class="aa" d="M141.55,194.59s-18.05-2.67-27.59-3.44c-9.16-.74-20.01-1.16-31.66-1.16s-22.5,.42-31.66,1.16c-9.54,.78-27.59,4.49-27.59,4.49v4.66c0,4.15,26.53,7.51,59.24,7.51s59.24-3.37,59.24-7.51v-5.71Z"/><path class="aa" d="M64.09,132.73c-21.63,7.71-36.08,28.19-36.08,51.16v7.69c7.72-1.84,15.59-2.99,23.52-3.41-.05-1.48-.08-2.96-.08-4.46,0-20.18,4.88-38.34,12.65-50.98Z"/><path class="ad" d="M136.6,183.88c.02-12.6-4.37-24.81-12.39-34.53,3.48,11.12,5.21,22.71,5.14,34.35,0,2.12-.05,4.21-.16,6.29,2.47,.38,4.92,.9,7.33,1.55l.09-7.67Z"/><path class="ab" d="M136.6,183.88c.02-12.6-4.37-24.81-12.39-34.53,3.48,11.12,5.21,22.71,5.14,34.35,0,2.12-.05,4.21-.16,6.29,2.47,.38,4.92,.9,7.33,1.55l.09-7.67Z"/><path class="ad" d="M124.21,149.35c-14.55-17.63-38.57-24.28-60.12-16.63-7.77,12.64-12.64,30.8-12.64,50.98,0,1.5,.03,2.98,.08,4.46,8.08-.62,17.44-1.01,27.47-1.08h3.31c15.68-.19,31.35,.79,46.88,2.92,.11-2.07,.16-4.17,.16-6.29,.07-11.65-1.66-23.25-5.15-34.37h0Z"/><g transform="translate(81.394668, 0.000000)"><path class="ad" d="M104.15,152.94l-3.44-21.51c-.24-1.58-1.38-2.88-2.91-3.34-10.03-2.94-20.69-2.94-30.71,0-1.53,.46-2.67,1.76-2.91,3.34l-3.44,21.51"/></g><path class="ad" d="M82.31,186.63h-3.31c-31.18,.22-55.93,3.49-55.93,7.5v5.81c-.05,.34,.02,.69,.2,.98,1.58-1.19,3.4-2.03,5.34-2.45,4.93-1.2,9.93-2.04,14.98-2.51,2.87-.31,5.73,.62,7.86,2.57,3.9,3.57,8.99,5.55,14.28,5.55h33.17c5.29,0,10.38-1.98,14.28-5.55h0c2.13-1.95,4.99-2.88,7.86-2.57,5.05,.47,10.05,1.31,14.98,2.51,1.83,.35,3.56,1.11,5.06,2.22,.09,.09,.18,.16,.26,.24,.18-.29,.26-.64,.21-.98v-5.81c.02-4.13-26.51-7.5-59.22-7.5Z"/><polygon class="p" points="94.79 169.38 82.3 177.07 82.3 187.06 94.79 169.38"/><polygon class="v" points="82.31 187.06 82.31 177.07 69.82 169.38 82.31 187.06"/><polygon class="v" points="69.82 164.81 69.82 164.81 82.31 172.04 82.31 144.61 69.82 164.81"/><polygon class="p" points="94.79 164.81 82.3 144.6 82.3 144.6 82.3 157.59 82.3 157.59 82.3 172.04 94.79 164.81 94.79 164.81 94.79 164.81"/></g><g><path class="q" d="M254.52,216.85c-.54,0-1.07-.14-1.55-.41l-4.92-2.91c-.74-.41-.38-.56-.13-.64,.98-.34,1.18-.42,2.23-1.02,.11-.06,.25-.04,.37,.03l3.78,2.24c.14,.07,.33,.07,.46,0l14.75-8.51c.14-.08,.23-.24,.23-.4v-17.02c0-.17-.09-.32-.23-.41l-14.74-8.5c-.14-.08-.32-.08-.45,0l-14.74,8.5c-.14,.08-.23,.24-.23,.4v17.02c0,.16,.09,.32,.23,.39l4.04,2.33c2.19,1.1,3.53-.2,3.53-1.49v-16.79c0-.24,.19-.42,.43-.42h1.87c.23,0,.42,.18,.42,.42v16.8c0,2.92-1.59,4.6-4.37,4.6-.85,0-1.52,0-3.4-.92l-3.87-2.23c-.96-.55-1.55-1.59-1.55-2.69v-17.02c0-1.11,.59-2.14,1.55-2.69l14.76-8.52c.93-.53,2.17-.53,3.1,0l14.74,8.52c.95,.55,1.55,1.58,1.55,2.69v17.02c0,1.1-.59,2.13-1.55,2.69l-14.74,8.52c-.47,.27-1.01,.41-1.55,.41"/><path class="q" d="M259.08,205.13c-6.45,0-7.8-2.96-7.8-5.45,0-.24,.19-.42,.43-.42h1.9c.21,0,.39,.15,.42,.36,.29,1.94,1.14,2.92,5.05,2.92,3.11,0,4.43-.7,4.43-2.35,0-.95-.38-1.65-5.2-2.13-4.04-.4-6.53-1.29-6.53-4.52,0-2.97,2.51-4.75,6.71-4.75,4.72,0,7.06,1.64,7.36,5.16,.01,.12-.03,.24-.11,.33-.08,.08-.2,.14-.31,.14h-1.92c-.2,0-.37-.14-.41-.33-.46-2.04-1.58-2.69-4.61-2.69-3.39,0-3.79,1.18-3.79,2.07,0,1.07,.47,1.39,5.04,1.99,4.53,.6,6.68,1.45,6.68,4.64s-2.68,5.05-7.35,5.05m17.96-18.05h.49c.41,0,.48-.28,.48-.45,0-.44-.3-.44-.47-.44h-.51v.89Zm-.61-1.4h1.1c.38,0,1.11,0,1.11,.84,0,.59-.38,.71-.6,.78,.44,.03,.47,.32,.53,.72,.03,.25,.08,.69,.17,.84h-.68c-.02-.15-.12-.96-.12-1-.04-.18-.11-.27-.33-.27h-.56v1.28h-.62v-3.19Zm-1.32,1.59c0,1.32,1.07,2.39,2.38,2.39s2.39-1.09,2.39-2.39-1.08-2.38-2.39-2.38-2.38,1.04-2.38,2.37m5.23,.01c0,1.56-1.28,2.84-2.84,2.84s-2.84-1.26-2.84-2.84,1.32-2.84,2.84-2.84,2.84,1.24,2.84,2.84"/><path class="t" d="M208.86,150.28c0-.68-.36-1.3-.94-1.64l-15.63-8.99c-.26-.16-.56-.24-.86-.25h-.16c-.3,.01-.6,.09-.86,.25l-15.63,8.99c-.58,.34-.95,.96-.95,1.64l.03,24.23c0,.34,.17,.65,.47,.82,.29,.18,.65,.18,.94,0l9.29-5.32c.59-.35,.94-.97,.94-1.64v-11.32c0-.68,.36-1.3,.94-1.64l3.96-2.28c.29-.17,.62-.25,.94-.25s.65,.08,.94,.25l3.95,2.28c.59,.34,.94,.96,.94,1.64v11.32c0,.67,.36,1.29,.95,1.64l9.29,5.32c.29,.17,.65,.17,.94,0,.29-.17,.47-.48,.47-.82l.03-24.22Zm73.77,12.61c0,.17-.09,.32-.24,.41l-5.37,3.1c-.15,.08-.33,.08-.47,0l-5.37-3.1c-.15-.08-.24-.24-.24-.41v-6.2c0-.17,.09-.32,.23-.41l5.37-3.1c.15-.08,.33-.08,.48,0l5.37,3.1c.15,.08,.24,.24,.24,.41v6.2Zm1.45-45.92c-.29-.16-.65-.16-.94,0-.29,.17-.47,.48-.47,.82v23.99c0,.24-.13,.45-.33,.57-.2,.12-.46,.12-.66,0l-3.92-2.26c-.58-.34-1.3-.34-1.89,0l-15.64,9.03c-.58,.34-.94,.96-.94,1.63v18.06c0,.68,.36,1.3,.94,1.64l15.64,9.03c.58,.34,1.3,.34,1.89,0l15.64-9.04c.58-.34,.94-.96,.94-1.64v-45c0-.69-.37-1.32-.97-1.65l-9.3-5.19Zm52.08,39.55c.58-.34,.94-.96,.94-1.63v-4.38c0-.67-.36-1.29-.94-1.63l-15.54-9.02c-.59-.34-1.31-.34-1.89,0l-15.64,9.02c-.59,.34-.94,.96-.94,1.64v18.05c0,.68,.37,1.31,.95,1.64l15.54,8.85c.57,.33,1.27,.33,1.85,.01l9.4-5.22c.3-.17,.48-.48,.48-.82s-.18-.66-.48-.82l-15.73-9.03c-.3-.17-.48-.48-.48-.82v-5.66c0-.34,.18-.65,.47-.82l4.89-2.82c.29-.17,.65-.17,.94,0l4.9,2.82c.29,.17,.47,.48,.47,.82v4.45c0,.34,.18,.65,.47,.82,.29,.17,.65,.17,.94,0l9.38-5.45Z"/><path class="r" d="M319.44,155.68c.11-.07,.25-.07,.36,0l3,1.73c.11,.06,.18,.18,.18,.31v3.47c0,.13-.07,.25-.18,.31l-3,1.73c-.11,.07-.25,.07-.36,0l-3-1.73c-.11-.06-.18-.18-.18-.31v-3.47c0-.13,.07-.25,.18-.31l3-1.73Z"/><g class="x"><g transform="translate(-78.306 -164.016)"><path class="y" d="M267.22,147.41l-43.82-21.48-22.47,45.83,43.82,21.48,22.47-45.83Z"/></g></g><g class="ac"><g transform="translate(-78.306 -164.016)"><path class="u" d="M198.09,153.76l30.94,41.88,40.92-30.23-30.94-41.87-40.92,30.23Z"/></g></g><g class="k"><g transform="translate(-78.306 -164.016)"><path class="w" d="M217.64,139.71v39.65h33.84v-39.65h-33.84Z"/></g></g></g><g><path class="j" d="M453.36,150.87h0c-1.09-.37-2.18-.72-3.29-1.04,.18-.74,.35-1.49,.51-2.24,2.49-12.08,.86-21.82-4.7-25.02-5.33-3.07-14.05,.13-22.85,7.79-.87,.76-1.72,1.53-2.54,2.33-.55-.53-1.12-1.05-1.69-1.56-9.23-8.19-18.47-11.64-24.03-8.43-5.32,3.08-6.9,12.23-4.66,23.69,.22,1.13,.47,2.26,.76,3.38-1.31,.37-2.57,.77-3.78,1.19-10.82,3.77-17.72,9.68-17.72,15.81s7.42,12.68,18.68,16.53c.91,.31,1.83,.6,2.76,.86-.3,1.21-.57,2.42-.8,3.65-2.14,11.25-.47,20.19,4.84,23.25,5.48,3.16,14.69-.09,23.65-7.92,.71-.62,1.42-1.27,2.13-1.96,.9,.87,1.82,1.71,2.76,2.52,8.68,7.47,17.26,10.49,22.56,7.42,5.48-3.17,7.26-12.77,4.95-24.45-.18-.89-.38-1.8-.61-2.73,.65-.19,1.28-.39,1.9-.59,11.71-3.88,19.33-10.15,19.33-16.57s-7.13-12.1-18.16-15.9Zm-27.46-17.22c7.54-6.56,14.59-9.16,17.8-7.3h0c3.42,1.97,4.75,9.93,2.6,20.36-.14,.68-.29,1.36-.46,2.03-4.5-1.02-9.06-1.74-13.66-2.16-2.63-3.78-5.52-7.38-8.64-10.78,.77-.74,1.55-1.46,2.35-2.15Zm-26.37,38.36c.92,1.78,1.89,3.55,2.9,5.29,1.03,1.77,2.1,3.52,3.21,5.25-3.16-.34-6.3-.85-9.42-1.51,.9-2.91,2.01-5.94,3.31-9.02Zm0-10.26c-1.27-3.01-2.36-5.98-3.25-8.84,2.91-.65,6.02-1.19,9.26-1.59-1.08,1.69-2.13,3.41-3.13,5.15-1,1.74-1.96,3.5-2.88,5.28Zm2.32,5.13c1.34-2.8,2.79-5.54,4.35-8.24h0c1.55-2.69,3.2-5.32,4.95-7.89,3.04-.23,6.15-.35,9.3-.35s6.28,.12,9.32,.35c1.73,2.56,3.37,5.18,4.92,7.86,1.56,2.68,3.02,5.42,4.4,8.2-1.36,2.81-2.83,5.56-4.39,8.27h0c-1.55,2.69-3.18,5.32-4.9,7.91-3.03,.22-6.16,.33-9.36,.33s-6.27-.1-9.25-.29c-1.76-2.58-3.43-5.22-4.99-7.92-1.56-2.69-3.01-5.43-4.36-8.23Zm36.64,10.39c1.03-1.78,2.02-3.59,2.96-5.41h0c1.3,2.93,2.44,5.93,3.43,8.99-3.15,.71-6.33,1.25-9.53,1.62,1.08-1.71,2.13-3.44,3.14-5.2h0Zm2.92-15.52c-.94-1.79-1.92-3.56-2.94-5.32h0c-1-1.73-2.03-3.43-3.11-5.11,3.26,.41,6.38,.96,9.32,1.63-.94,2.99-2.03,5.92-3.27,8.8Zm-20.91-22.82c2.12,2.32,4.13,4.74,6.01,7.26-4.02-.19-8.05-.19-12.07,0,1.99-2.62,4.02-5.05,6.06-7.25Zm-23.53-12.45c3.42-1.98,10.98,.84,18.94,7.92,.51,.45,1.02,.93,1.53,1.42-3.14,3.39-6.04,6.99-8.7,10.77-4.59,.41-9.14,1.12-13.63,2.12-.26-1.04-.49-2.09-.7-3.15h0c-1.92-9.81-.65-17.21,2.56-19.07Zm-4.98,53.49c-.85-.24-1.69-.51-2.52-.79-4.33-1.36-8.37-3.51-11.92-6.33-2.06-1.41-3.44-3.61-3.81-6.07,0-3.72,5.55-8.46,14.8-11.69,1.16-.4,2.33-.77,3.52-1.11,1.37,4.41,3.04,8.72,4.98,12.9-1.97,4.25-3.65,8.62-5.04,13.09Zm23.65,19.89c-3.34,3.07-7.22,5.49-11.44,7.16h0c-2.25,1.08-4.84,1.17-7.16,.27-3.22-1.86-4.56-9.03-2.73-18.66,.22-1.14,.47-2.27,.75-3.39,4.54,.97,9.14,1.64,13.77,1.99,2.68,3.8,5.61,7.42,8.77,10.83-.63,.61-1.28,1.21-1.95,1.79Zm4.98-4.93c-2.07-2.23-4.13-4.7-6.15-7.36,1.96,.08,3.95,.12,5.98,.12,2.08,0,4.14-.05,6.17-.14-1.87,2.56-3.87,5.02-6,7.38h0Zm26.5,6.07c-.19,2.49-1.4,4.78-3.34,6.34-3.22,1.86-10.11-.56-17.53-6.95-.85-.73-1.71-1.51-2.57-2.34,3.1-3.43,5.96-7.06,8.56-10.87,4.66-.39,9.28-1.11,13.84-2.13,.21,.84,.39,1.66,.55,2.47h0c.99,4.43,1.16,9,.49,13.48h0Zm3.71-21.8h0c-.56,.18-1.13,.36-1.72,.54-1.43-4.43-3.16-8.75-5.17-12.94,1.94-4.14,3.6-8.4,4.97-12.75,1.04,.3,2.06,.62,3.04,.96,9.45,3.25,15.22,8.07,15.22,11.77,0,3.95-6.23,9.08-16.34,12.43h0Z"/><path class="j" d="M420.45,157.64c5.04,0,9.12,4.08,9.12,9.12,0,5.04-4.08,9.12-9.12,9.12-5.04,0-9.12-4.08-9.12-9.12h0c0-5.04,4.08-9.12,9.12-9.12h0"/></g><g><path class="o" d="M554.32,114.44l-16.85,29.95h-33.68l16.84-29.95h33.69"/><path class="n" d="M537.47,144.39h33.69l-16.84-29.95h-33.69l16.84,29.95Z"/><path class="m" d="M520.63,174.33l16.84-29.94-16.84-29.95-16.84,29.95,16.84,29.94Z"/><path class="o" d="M520.8,219.27l16.85-29.95h33.69l-16.85,29.95h-33.69"/><path class="n" d="M537.65,189.32h-33.69l16.84,29.95h33.69l-16.84-29.95Z"/><path class="m" d="M554.49,159.37l-16.84,29.94,16.84,29.95,16.85-29.95-16.85-29.94Z"/></g></g></g></svg>